<svg version="1.1" xmlns="http://www.w3.org/2000/svg" xmlns:xlink="http://www.w3.org/1999/xlink" width="88.30986" height="44.1512" viewBox="0,0,88.30986,44.1512"><g transform="translate(-191.67384,-153.98161)"><g data-paper-data="{&quot;isPaintingLayer&quot;:true}" fill="#000000" fill-rule="nonzero" stroke="none" stroke-width="1" stroke-linecap="butt" stroke-linejoin="miter" stroke-miterlimit="10" stroke-dasharray="" stroke-dashoffset="0" style="mix-blend-mode: normal"><path d="M198.66182,163.26675h13.09635c3.84417,0.03248 6.62959,1.13468 8.35625,3.30668c1.72657,2.1721 2.29675,5.13839 1.71034,8.89887c-0.22808,1.71821 -0.73304,3.40394 -1.51488,5.05728c-0.74932,1.65334 -1.79185,3.14456 -3.12749,4.47375c-1.62893,1.68573 -3.37182,2.75554 -5.22877,3.20943c-1.85695,0.45386 -3.77908,0.68079 -5.7663,0.68079h-5.86404l-1.85695,9.23926h-6.79251l6.98798,-34.86606M204.37925,168.8103l-2.93202,14.58831c0.19545,0.03239 0.39092,0.04863 0.5864,0.04863h0.68414c3.12749,0.03239 5.73366,-0.27555 7.81872,-0.92393c2.08496,-0.68078 3.48578,-3.04731 4.20256,-7.09964c0.58638,-3.40394 -0.00003,-5.36519 -1.75921,-5.88395c-1.72666,-0.51867 -3.89313,-0.76181 -6.49931,-0.72942c-0.39095,0.03239 -0.7656,0.04863 -1.12394,0.04863c-0.3258,0.00002 -0.66786,0.00002 -1.02621,0l0.04887,-0.04863"/><path d="M229.56419,153.98161h6.74364l-1.90581,9.28789h6.05951c3.32295,0.06487 5.79885,0.74565 7.42778,2.04236c1.66148,1.2968 2.15015,3.76057 1.46601,7.39141l-3.27409,16.19302h-6.84138l3.12749,-15.46361c0.32573,-1.62086 0.22802,-2.77178 -0.2932,-3.45257c-0.52127,-0.68077 -1.64525,-1.02118 -3.37182,-1.02118l-5.42423,-0.04863l-4.00709,19.98598h-6.74364l7.03684,-34.91469"/><path d="M256.59777,163.26675h13.09635c3.84417,0.03248 6.62959,1.13468 8.35625,3.30668c1.72657,2.1721 2.29675,5.13839 1.71034,8.89887c-0.22808,1.71821 -0.73303,3.40394 -1.51488,5.05728c-0.74932,1.65334 -1.79185,3.14456 -3.12749,4.47375c-1.62893,1.68573 -3.37182,2.75554 -5.22877,3.20943c-1.85695,0.45386 -3.77908,0.68079 -5.7663,0.68079h-5.86404l-1.85695,9.23926h-6.79251l6.98798,-34.86606M262.3152,168.8103l-2.93202,14.58831c0.19546,0.03239 0.39093,0.04863 0.5864,0.04863h0.68414c3.12749,0.03239 5.73366,-0.27555 7.81872,-0.92393c2.08496,-0.68078 3.48578,-3.04731 4.20256,-7.09964c0.58638,-3.40394 -0.00003,-5.36519 -1.75921,-5.88395c-1.72666,-0.51867 -3.89313,-0.76181 -6.49931,-0.72942c-0.39095,0.03239 -0.7656,0.04863 -1.12394,0.04863c-0.3258,0.00002 -0.66786,0.00002 -1.02621,0l0.04887,-0.04863"/></g></g></svg>