<?xml version="1.0"?><svg xmlns="http://www.w3.org/2000/svg"  viewBox="0 0 50 50" width="50px" height="50px">    <path d="M 25 2 C 12.309295 2 2 12.309295 2 25 C 2 37.690705 12.309295 48 25 48 C 37.690705 48 48 37.690705 48 25 C 48 12.309295 37.690705 2 25 2 z M 24 4.1230469 L 24 10 L 18.066406 10 C 18.463088 9.1938904 18.888118 8.4528858 19.337891 7.7949219 C 20.757362 5.7184027 22.354753 4.4836851 24 4.1230469 z M 26 4.1230469 C 27.654445 4.4858163 29.260499 5.7327586 30.685547 7.8300781 C 31.12696 8.4797292 31.543634 9.2073323 31.933594 10 L 26 10 L 26 4.1230469 z M 19.173828 4.8222656 C 18.647021 5.3741035 18.149904 5.9895741 17.6875 6.6660156 C 17.012375 7.6536436 16.403476 8.7756456 15.859375 10 L 10.3125 10 C 12.760984 7.6038449 15.787694 5.7962326 19.173828 4.8222656 z M 30.826172 4.8222656 C 34.212306 5.7962326 37.239016 7.6038449 39.6875 10 L 34.140625 10 C 33.603957 8.792788 33.00387 7.684315 32.339844 6.7070312 C 31.86994 6.0154488 31.362822 5.3847019 30.826172 4.8222656 z M 8.515625 12 L 15.066406 12 C 14.52171 13.543834 14.078231 15.220425 13.740234 17 L 5.5898438 17 C 6.3351679 15.191971 7.3213992 13.511926 8.515625 12 z M 17.203125 12 L 24 12 L 24 17 L 15.775391 17 C 16.139995 15.189847 16.62482 13.510452 17.203125 12 z M 26 12 L 32.794922 12 C 33.373517 13.511026 33.859939 15.189022 34.224609 17 L 26 17 L 26 12 z M 34.933594 12 L 41.484375 12 C 42.678601 13.511926 43.664832 15.191971 44.410156 17 L 36.259766 17 C 35.92187 15.220607 35.478381 13.543689 34.933594 12 z M 4.8867188 19 L 45.113281 19 C 45.679487 20.902818 46 22.911377 46 25 C 46 27.088437 45.679385 29.097313 45.113281 31 L 4.8867188 31 C 4.3206152 29.097313 4 27.088437 4 25 C 4 22.911377 4.3205133 20.902818 4.8867188 19 z M 11.65625 20.867188 C 10.14925 20.934187 9.0197187 21.943172 9.0117188 23.326172 C 9.0057187 24.300172 9.6948906 24.870156 10.462891 25.410156 L 10.828125 25.652344 C 11.607125 26.206344 11.785156 26.590625 11.785156 27.015625 C 11.785156 27.501625 11.398578 28.045656 10.517578 28.097656 C 9.2585781 28.172656 8.6741562 27.628297 8.5351562 26.529297 L 8.4394531 26.533203 C 8.2714531 27.186203 8.0130469 28.311125 7.9980469 28.453125 C 8.3510469 28.766125 9.2925469 29.109375 10.310547 29.109375 C 12.750547 29.109375 13.710938 28.196109 13.710938 26.662109 C 13.710937 25.501109 12.724813 24.743312 11.882812 24.195312 L 11.517578 23.966797 C 10.871578 23.549797 10.482422 23.345938 10.482422 22.835938 C 10.482422 22.482938 10.766359 21.951719 11.568359 21.886719 C 12.709359 21.793719 13.062859 22.374172 13.255859 23.201172 L 13.357422 23.199219 L 13.712891 21.214844 C 13.589891 21.173844 13.290313 21.074578 13.070312 21.017578 C 12.646312 20.906578 12.09525 20.847188 11.65625 20.867188 z M 23.345703 21 L 23.345703 21.101562 C 23.406703 21.221563 23.583953 21.433187 23.126953 22.367188 C 22.605953 23.434188 21.767781 25.121734 21.175781 26.302734 L 21.138672 26.302734 L 20.664062 21.072266 L 20.048828 21.072266 L 17.308594 26.292969 L 17.283203 26.292969 L 16.919922 22.466797 C 16.856922 21.714797 16.9225 21.39075 17.1875 21.09375 L 17.1875 21.001953 L 14.734375 21.001953 L 14.732422 21.09375 C 14.973422 21.31475 15.015703 21.8075 15.095703 22.5625 L 15.740234 28.998047 L 16.708984 28.998047 L 19.335938 23.960938 L 19.371094 23.960938 L 19.839844 28.998047 L 20.984375 28.998047 C 21.161375 28.642047 23.508734 23.807719 24.177734 22.511719 C 24.574734 21.741719 24.762844 21.339609 25.089844 21.099609 L 25.091797 21.003906 L 23.345703 21 z M 28.486328 21 L 26.230469 21.001953 L 26.230469 21.095703 C 26.424469 21.346703 26.362469 21.694531 26.105469 22.644531 L 24.753906 27.501953 C 24.475906 28.458953 24.402875 28.720297 24.046875 28.904297 L 24.048828 29 L 26.306641 29 L 26.304688 28.904297 C 26.152687 28.695297 26.147203 28.407547 26.408203 27.435547 L 27.757812 22.556641 C 28.005813 21.711641 28.109281 21.22275 28.488281 21.09375 L 28.486328 21 z M 35.017578 21.001953 L 30.296875 21.003906 L 30.298828 21.097656 C 30.488828 21.352656 30.441359 21.666641 30.193359 22.556641 L 28.835938 27.453125 C 28.574938 28.373125 28.494563 28.742344 28.101562 28.902344 L 28.101562 29 L 30.361328 28.996094 L 30.361328 28.892578 C 30.165328 28.672578 30.240797 28.249734 30.466797 27.427734 L 31.142578 25 L 31.359375 25 C 32.276375 25.001 33.012031 24.930078 33.207031 25.580078 L 33.298828 25.580078 L 33.810547 23.675781 L 33.71875 23.675781 C 33.42175 24.099781 32.691437 24 31.648438 24 L 31.417969 24 L 31.806641 22.513672 C 31.915641 22.100672 32.033984 22 32.458984 22 L 32.523438 22.001953 C 33.137437 22.001953 34.007188 21.874656 34.367188 22.847656 L 34.457031 22.847656 C 34.606031 22.366656 34.913578 21.316953 35.017578 21.001953 z M 36.292969 21.001953 C 36.124969 21.502953 35.851891 22.438703 35.712891 22.845703 L 35.814453 22.847656 C 36.431453 21.915656 37.272734 22 37.802734 22 L 37.964844 22 L 36.453125 27.423828 C 36.206125 28.307828 36.117422 28.707484 35.732422 28.896484 L 35.734375 28.994141 L 37.943359 28.994141 L 37.943359 28.896484 C 37.737359 28.674484 37.825969 28.3095 38.042969 27.4375 L 39.550781 22 L 39.648438 22 C 40.055437 22 40.989891 21.884703 41.337891 22.845703 L 41.431641 22.847656 C 41.597641 22.343656 41.849 21.455953 42 21.001953 L 36.292969 21.001953 z M 5.5898438 33 L 13.738281 33 C 14.076687 34.780035 14.523209 36.455909 15.068359 38 L 8.515625 38 C 7.3213976 36.488039 6.3351653 34.808063 5.5898438 33 z M 15.777344 33 L 24 33 L 24 38 L 17.201172 38 C 16.623189 36.49089 16.141714 34.808075 15.777344 33 z M 26 33 L 34.222656 33 C 33.858286 34.808075 33.376811 36.49089 32.798828 38 L 26 38 L 26 33 z M 36.261719 33 L 44.410156 33 C 43.664835 34.808063 42.678602 36.488039 41.484375 38 L 34.931641 38 C 35.476791 36.455909 35.923313 34.780035 36.261719 33 z M 10.3125 40 L 15.857422 40 C 16.416868 41.258657 17.04648 42.406085 17.744141 43.414062 C 18.191567 44.060505 18.672592 44.648855 19.179688 45.179688 C 15.791386 44.206181 12.762317 42.397367 10.3125 40 z M 18.072266 40 L 24 40 L 24 45.876953 C 22.374893 45.5206 20.796673 44.311621 19.388672 42.277344 C 18.92132 41.602114 18.483242 40.834381 18.072266 40 z M 26 40 L 31.927734 40 C 31.516758 40.834381 31.07868 41.602114 30.611328 42.277344 C 29.203327 44.311621 27.625107 45.5206 26 45.876953 L 26 40 z M 34.142578 40 L 39.6875 40 C 37.237683 42.397367 34.208614 44.206181 30.820312 45.179688 C 31.327408 44.648854 31.808433 44.060505 32.255859 43.414062 C 32.95352 42.406085 33.583132 41.258657 34.142578 40 z"/></svg>